<svg id="Layer_1" data-name="Layer 1" xmlns="http://www.w3.org/2000/svg" viewBox="0 0 800 400"><defs><style>.cls-1{font-size:157px;fill:#501135;font-family:Quicksand-Regular, Quicksand;}.cls-2,.cls-3{fill:#ee3b96;}.cls-3{letter-spacing:0em;}.cls-4{fill:none;stroke:#ee3b96;stroke-miterlimit:10;stroke-width:7px;}</style></defs><text class="cls-1" transform="translate(182.05 298.38)">Bu<tspan class="cls-2" x="191.54" y="0">n</tspan><tspan class="cls-3" x="282.28" y="0">n</tspan><tspan x="372.24" y="0">y</tspan></text><path class="cls-4" d="M415.41,199.14c-22.36-25.51-25.09-69-25.37-83a2.66,2.66,0,0,1,4-2.37c11.19,6.25,42.55,25,48.4,42.07,5.71,16.68,5.84,35,5.66,41.63A2.66,2.66,0,0,1,445.4,200h-28A2.67,2.67,0,0,1,415.41,199.14Z"/><path class="cls-4" d="M511.34,199.07c21.91-25.43,24.65-68.65,24.95-82.85a2.73,2.73,0,0,0-4.07-2.43c-11.17,6.35-41.75,25-47.47,42-5.61,16.63-5.75,34.88-5.58,41.58A2.73,2.73,0,0,0,481.9,200h27.39A2.69,2.69,0,0,0,511.34,199.07Z"/></svg>